<?xml version="1.0" encoding="UTF-8"?>
<svg version="1.1" xmlns="http://www.w3.org/2000/svg" width="512" height="512">
<path d="M0 0 C2 2 2 2 2.5625 5.75 C2.19889889 18.33463833 -7.40375715 28.79505128 -16 37 C-17.97209157 38.70539076 -19.97558561 40.35609228 -22 42 C-19.60288289 41.54771375 -17.20747182 41.0883992 -14.8125 40.625 C-13.80219727 40.43550781 -13.80219727 40.43550781 -12.77148438 40.2421875 C-9.82928776 39.66810036 -7.09144616 39.03702972 -4.30859375 37.91015625 C-1.78888961 36.91677035 0.05567759 36.76277257 2.75 36.8125 C3.52859375 36.81894531 4.3071875 36.82539062 5.109375 36.83203125 C7 37 7 37 8 38 C9.12728095 49.83644994 2.85672323 57.96919529 -4.28515625 66.859375 C-8.08293945 71.39181135 -12.43849549 75.24403778 -17 79 C-15.73022577 82.83577631 -14.43277805 86.66144114 -13.125 90.484375 C-12.41650112 92.57286051 -11.70817265 94.66140384 -11 96.75 C-10.64421875 97.78382813 -10.2884375 98.81765625 -9.921875 99.8828125 C-6.7218546 109.36346995 -4.64381265 118.09502585 -4.875 128.125 C-4.88402344 128.89070312 -4.89304687 129.65640625 -4.90234375 130.4453125 C-4.92549005 132.29701647 -4.96133874 134.14855499 -5 136 C23.42266906 132.16381154 50.57728165 127.49810053 77 116 C77.80469727 115.65453125 78.60939453 115.3090625 79.43847656 114.953125 C91.26274894 109.82337187 101.81722216 103.55202219 112.30859375 96.07226562 C114 95 114 95 117 94 C117.67240755 92.66955259 118.33809946 91.33570577 119 90 C120.9609375 88.02734375 120.9609375 88.02734375 123.375 85.9375 C124.26703125 85.15246094 125.1590625 84.36742188 126.078125 83.55859375 C127.04234375 82.71425781 128.0065625 81.86992188 129 81 C131.05254934 79.17852799 133.09298939 77.34435111 135.125 75.5 C135.63144043 75.04044922 136.13788086 74.58089844 136.65966797 74.10742188 C140.50516025 70.56772175 143.95869389 66.80667166 147.28125 62.77734375 C150.09683255 59.86577543 152.30861595 59.07826989 156.3125 58.625 C161.05200751 59.10698381 163.11828792 60.23801256 167 63 C174.22574476 72.56150876 169.53192602 91.0617756 168.04296875 102.1484375 C164.32814507 127.66058977 157.89776679 151.89962557 147.9675293 175.65307617 C146.95042396 178.12025599 145.981642 180.60377856 145.01171875 183.08984375 C143.24146902 187.52667219 141.20981473 191.73875275 138.9375 195.9375 C138.59912109 196.58267578 138.26074219 197.22785156 137.91210938 197.89257812 C136.22532205 201.0410303 134.58769264 203.55760561 132 206 C130.8596029 207.68436376 129.75892406 209.39594324 128.6875 211.125 C128.07003906 212.10726562 127.45257813 213.08953125 126.81640625 214.1015625 C126.21699219 215.05804688 125.61757813 216.01453125 125 217 C120.51172595 224.11933125 115.4806177 230.61300503 110 237 C109.56445801 237.51079102 109.12891602 238.02158203 108.68017578 238.54785156 C100.86356554 247.63224714 92.06628879 256.39960986 82 263 C81.34 263 80.68 263 80 263 C80 263.66 80 264.32 80 265 C92.71833784 263.95315892 105.31825723 262.30746939 117.9375 260.4375 C118.69391785 260.32572418 119.45033569 260.21394836 120.22967529 260.0987854 C128.50800879 258.91693282 128.50800879 258.91693282 136.73657227 257.44555664 C141.13909215 256.57891887 144.84406267 256.63010005 149.125 258 C153.71891052 261.19576384 156.34007469 264.91373276 157.51953125 270.4296875 C157.99642144 277.54976895 155.4074187 281.64695975 151 287 C150.35611328 287.78963135 150.35611328 287.78963135 149.69921875 288.59521484 C140.92381477 299.29552665 131.61265152 309.14489669 120.76953125 317.7890625 C118.95480999 319.23776804 117.15944774 320.71113988 115.38671875 322.2109375 C104.32457839 331.55230047 92.66452257 338.93560395 79.640625 345.1953125 C76.61173021 346.66316151 73.77612297 348.31091314 70.9375 350.125 C60.90579616 356.31907217 45.79187968 363 34 363 C38.80634265 369.74032338 46.21464164 373.08401029 54.0625 375.375 C60.51287644 376.39886928 66.81261571 376.43529959 73.25 375.3125 C78.73288839 374.85559263 82.21436318 376.49630584 86.375 380 C90.77403857 385.41420131 89.41655489 393.65985075 88.78521729 400.237854 C88.20795209 405.24372207 87.48090932 410.22434395 86.71118164 415.20385742 C86.31093195 417.82276 85.94111325 420.44487262 85.57226562 423.06835938 C85.31694092 424.7606948 85.05984129 426.4527636 84.80078125 428.14453125 C84.695345 428.91553665 84.58990875 429.68654205 84.48127747 430.48091125 C83.56927282 436.1034634 81.58114152 440.53727363 78 445 C73.66611877 448.0148739 70.220604 448.6300729 65 448 C60.908914 446.59604798 57.82685674 445.04735188 55.125 441.625 C53.91192837 438.79449952 52.95891352 435.92508914 52 433 C50.86111328 434.28197266 50.86111328 434.28197266 49.69921875 435.58984375 C48.69561498 436.70600122 47.69169204 437.82187176 46.6875 438.9375 C46.18798828 439.50146484 45.68847656 440.06542969 45.17382812 440.64648438 C42.23804345 443.89334557 40.4059296 445.72045389 35.94921875 446.23828125 C29.40304381 446.45309528 26.17304871 444.73538682 21.1875 440.4375 C18.89917085 437.66741734 18.78921562 434.69762403 18.6875 431.25 C18.65011719 430.43015625 18.61273438 429.6103125 18.57421875 428.765625 C19.54554427 422.45646476 24.11765623 417.31395907 28 412.4375 C31.1941037 408.39647486 34.19278975 404.32128429 37 400 C36.50371094 399.5875 36.00742187 399.175 35.49609375 398.75 C31.18427907 395.08454844 27.3722796 391.28655771 23.71875 386.96875 C21.53521896 384.46761444 19.16894393 382.19661326 16.76611328 379.90820312 C14.96875908 377.96624564 13.80759132 376.01804853 12.4609375 373.75 C10.62060905 371.28676933 9.75465766 370.15101186 6.70629883 369.54101562 C3.81489899 369.66912421 1.04542876 370.04198548 -1.8125 370.5 C-12.62717328 371.82404481 -23.18734203 372.21108032 -34.0625 372.125 C-35.55248983 372.11646611 -37.04248006 372.10800102 -38.5324707 372.09960938 C-42.02178336 372.07676419 -45.51086047 372.04206512 -49 372 C-48.05511719 372.79148437 -47.11023438 373.58296875 -46.13671875 374.3984375 C-45.60522217 374.84364746 -45.07372559 375.28885742 -44.52612305 375.74755859 C-35.90997547 382.81856117 -25.38054619 383.33916925 -14.69921875 383.49609375 C-10.44607574 384.07545536 -8.31606448 385.32749766 -5 388 C-1.16495734 393.24122497 -1.46444339 398.76633603 -2 405 C-2.94916486 409.3073514 -4.28672435 413.44542202 -5.6875 417.625 C-6.43129229 419.91354155 -7.17347815 422.20260583 -7.9140625 424.4921875 C-8.27532227 425.59916992 -8.63658203 426.70615234 -9.00878906 427.84667969 C-9.88601659 430.63738677 -10.67222101 433.42479444 -11.3984375 436.2578125 C-14.87074298 449.7752551 -14.87074298 449.7752551 -22 454 C-27.07538397 455.69179466 -31.31964436 455.56371867 -36.1875 453.375 C-40.03102284 451.25212401 -42.04066375 448.99704594 -44 445 C-44.75 441.125 -44.75 441.125 -45 438 C-45.54269531 438.55429687 -46.08539063 439.10859375 -46.64453125 439.6796875 C-47.35996094 440.40414063 -48.07539063 441.12859375 -48.8125 441.875 C-49.52019531 442.59429687 -50.22789062 443.31359375 -50.95703125 444.0546875 C-54.93527287 447.84276461 -58.57612153 449.06767763 -64 449 C-68.40790784 448.11523007 -71.28782103 446.73043997 -74.4375 443.5 C-76.61432342 440.01708252 -77.19464524 437.22557618 -77.3125 433.1875 C-77.34988281 432.35605469 -77.38726562 431.52460938 -77.42578125 430.66796875 C-76.21625502 423.0890108 -68.95261624 417.7219381 -63.75 412.625 C-62.90953125 411.79355469 -62.0690625 410.96210938 -61.203125 410.10546875 C-59.13989498 408.06568453 -57.07212877 406.03073714 -55 404 C-55.93441535 402.72689688 -56.87267111 401.456612 -57.8125 400.1875 C-58.33457031 399.47980469 -58.85664063 398.77210938 -59.39453125 398.04296875 C-60.83282795 396.21272745 -62.35222452 394.63646352 -64 393 C-65.02334887 391.34756698 -66.01918166 389.67802657 -67 388 C-69.04387027 384.87704542 -71.14609401 381.79253147 -73.24023438 378.703125 C-73.66498047 378.07148438 -74.08972656 377.43984375 -74.52734375 376.7890625 C-74.95297607 376.16169189 -75.3786084 375.53432129 -75.81713867 374.88793945 C-77 373 -77 373 -77.88012695 371.10229492 C-80.2028162 366.11903451 -82.79228531 364.74274546 -87.70410156 362.9453125 C-88.99525879 362.50832031 -88.99525879 362.50832031 -90.3125 362.0625 C-99.35020544 358.74966456 -107.64586087 354.75932774 -116 350 C-116 349.34 -116 348.68 -116 348 C-117.08087891 347.59587891 -117.08087891 347.59587891 -118.18359375 347.18359375 C-136.39286595 339.53115342 -153.45583751 321.15653829 -163.39453125 304.54296875 C-164.95290118 301.95444394 -164.95290118 301.95444394 -166.953125 299.640625 C-169.419782 296.45844918 -171.16401728 293.16431542 -172.9375 289.5625 C-173.28377441 288.86237793 -173.63004883 288.16225586 -173.98681641 287.44091797 C-177.95773137 279.24570409 -181.84559672 270.86993112 -182.3125 261.6875 C-182.75328136 258.95285644 -183.34339682 257.52125996 -185.53027344 255.78515625 C-189.51467969 253.22038677 -193.7244315 251.16410436 -197.97412109 249.08349609 C-200.63784651 247.65886204 -203.00709041 245.94785196 -205.42480469 244.14453125 C-207.11838483 242.8718926 -207.11838483 242.8718926 -209.56640625 241.51953125 C-212.67801543 239.57664847 -215.27531697 237.18835143 -217.9375 234.6875 C-218.46529053 234.19620605 -218.99308105 233.70491211 -219.53686523 233.19873047 C-221.02957681 231.80448759 -222.51502317 230.40247812 -224 229 C-224.66257812 228.37996094 -225.32515625 227.75992188 -226.0078125 227.12109375 C-228.09493181 225.11263471 -229.8742367 223.20984506 -231.3671875 220.71875 C-232.87867904 218.2020081 -234.54712761 215.89124789 -236.30932617 213.54663086 C-239.80884677 208.87855808 -242.9332601 204.36916421 -245.3515625 199.03515625 C-249.23979502 189.36219001 -249.23979502 189.36219001 -256.7890625 182.78515625 C-259.39637523 181.8367838 -261.84328093 181.28636665 -264.58203125 180.71875 C-268.0910732 179.98084861 -269.97092014 178.84289623 -273 177 C-274.83218395 176.18187816 -276.68134892 175.40107134 -278.54296875 174.65234375 C-321.62545607 157.04990281 -321.62545607 157.04990281 -330 144 C-330.52454143 139.95353751 -330.33114895 137.6622979 -328.5 134 C-318.73350545 122.28020653 -305.16531364 115.89890683 -291 111 C-289.24236328 110.35224609 -289.24236328 110.35224609 -287.44921875 109.69140625 C-278.07536826 106.35562207 -268.81595744 104.4778002 -259 103 C-258.74605469 101.92621094 -258.49210937 100.85242188 -258.23046875 99.74609375 C-257.8831341 98.30981802 -257.53545967 96.87362444 -257.1875 95.4375 C-257.02185547 94.73302734 -256.85621094 94.02855469 -256.68554688 93.30273438 C-255.54083058 88.61587709 -254.01178987 84.38673952 -252 80 C-251.34 80 -250.68 80 -250 80 C-249.62488281 78.7315625 -249.62488281 78.7315625 -249.2421875 77.4375 C-244.72754744 64.94415645 -235.87676805 54.63510142 -227 45 C-226.3503125 44.27941406 -225.700625 43.55882812 -225.03125 42.81640625 C-208.6027377 25.41923166 -183.32697717 15.87874021 -160.4375 11.125 C-159.46997803 10.92156982 -158.50245605 10.71813965 -157.50561523 10.50854492 C-151.60650615 9.38111185 -145.73680111 8.76428439 -139.74365234 8.43823242 C-138.95987874 8.39552121 -138.17610514 8.35281 -137.36858082 8.30880451 C-129.56896093 7.92132142 -121.78903017 7.92693618 -113.98238182 8.01653099 C-111.44840621 8.0439936 -108.9145281 8.06134067 -106.38044739 8.07600403 C-99.18876347 8.11792157 -91.99726507 8.16524369 -84.8059082 8.24682617 C-57.01510928 8.55163371 -26.34194157 -1.68140053 0 0 Z " fill="#DC2D43" transform="translate(336,35)"/>
<path d="M0 0 C2.98704569 0.49784095 4.39324263 1.26216175 7 3 C7.6875 6.625 7.6875 6.625 8 10 C8.66 10 9.32 10 10 10 C11.75282774 35.37892314 4.91316831 59.93076976 -11.80859375 79.59765625 C-18.91889258 87.39236887 -26.05587826 94.30828617 -35 100 C-35.76957031 100.50660156 -36.53914062 101.01320313 -37.33203125 101.53515625 C-42.68854457 105 -42.68854457 105 -45 105 C-45 105.66 -45 106.32 -45 107 C-71.17199915 120.04934412 -99.92890505 125.71555001 -128.37890625 116.67578125 C-135.1015583 114.36470025 -141.35392246 111.64669277 -147.10546875 107.39453125 C-149.00269829 105.93379888 -149.00269829 105.93379888 -151.26171875 104.7578125 C-155.12213712 102.2796552 -158.30048976 99.20844767 -161.625 96.0625 C-162.29273438 95.44181641 -162.96046875 94.82113281 -163.6484375 94.18164062 C-166.73178361 91.28637862 -169.62834896 88.52869658 -172 85 C-172 84.34 -172 83.68 -172 83 C-172.66 83 -173.32 83 -174 83 C-175.0384211 81.28133783 -176.05514635 79.54955402 -177.0625 77.8125 C-177.63097656 76.84957031 -178.19945312 75.88664062 -178.78515625 74.89453125 C-180.13815174 71.67083459 -180.04769518 70.27479579 -179 67 C-174.90176733 68.49303644 -171.35843315 70.50471852 -167.625 72.75 C-152.60214833 81.50171693 -135.48565869 87.44342731 -118 88 C-116.10894531 88.07734375 -116.10894531 88.07734375 -114.1796875 88.15625 C-87.80361203 88.9102053 -64.06844697 80.32279772 -44.5625 62.375 C-42.69016927 60.600879 -40.84468215 58.80319754 -39 57 C-38.03513672 56.11054688 -38.03513672 56.11054688 -37.05078125 55.203125 C-22.11979201 41.14224003 -11.66909733 21.69839506 -2.390625 3.640625 C-1 1 -1 1 0 0 Z " fill="#A1041E" transform="translate(437,170)"/>
<path d="M0 0 C5.23621583 0.37401542 9.60083565 1.47208778 14.51171875 3.26171875 C17.36142952 4.10723733 20.11118384 4.41217639 23.0625 4.75 C29.47239834 5.70414517 32.57220455 8.4987577 37 13 C45.11740351 19.14289995 55.54165842 19.3527178 65.30078125 19.49609375 C69.55392426 20.07545536 71.68393552 21.32749766 75 24 C78.83504266 29.24122497 78.53555661 34.76633603 78 41 C77.05083514 45.3073514 75.71327565 49.44542202 74.3125 53.625 C73.56870771 55.91354155 72.82652185 58.20260583 72.0859375 60.4921875 C71.72467773 61.59916992 71.36341797 62.70615234 70.99121094 63.84667969 C70.11398341 66.63738677 69.32777899 69.42479444 68.6015625 72.2578125 C65.12925702 85.7752551 65.12925702 85.7752551 58 90 C52.92461603 91.69179466 48.68035564 91.56371867 43.8125 89.375 C39.96897716 87.25212401 37.95933625 84.99704594 36 81 C35.25 77.125 35.25 77.125 35 74 C34.45730469 74.55429687 33.91460937 75.10859375 33.35546875 75.6796875 C32.28232422 76.76636719 32.28232422 76.76636719 31.1875 77.875 C30.12595703 78.95394531 30.12595703 78.95394531 29.04296875 80.0546875 C25.06472713 83.84276461 21.42387847 85.06767763 16 85 C11.59209216 84.11523007 8.71217897 82.73043997 5.5625 79.5 C3.38567658 76.01708252 2.80535476 73.22557618 2.6875 69.1875 C2.65011719 68.35605469 2.61273438 67.52460938 2.57421875 66.66796875 C3.78374498 59.0890108 11.04738376 53.7219381 16.25 48.625 C17.09046875 47.79355469 17.9309375 46.96210938 18.796875 46.10546875 C20.86010502 44.06568453 22.92787123 42.03073714 25 40 C24.06558465 38.72689688 23.12732889 37.456612 22.1875 36.1875 C21.66542969 35.47980469 21.14335937 34.77210938 20.60546875 34.04296875 C19.16717561 32.21273198 17.64762124 30.63660036 16 29 C14.97794746 27.34676487 13.9818489 25.67742378 13 24 C12.22814518 22.8318516 11.44750791 21.66947861 10.66015625 20.51171875 C10.23669922 19.88716797 9.81324219 19.26261719 9.37695312 18.61914062 C8.50733583 17.34120377 7.63497881 16.06512657 6.75976562 14.79101562 C3.75900922 10.35135326 1.31299118 5.83527855 -1 1 C-0.67 0.67 -0.34 0.34 0 0 Z " fill="#FEAB33" transform="translate(256,399)"/>
<path d="M0 0 C1.81640625 1.35546875 1.81640625 1.35546875 3.5625 3.1875 C11.83108365 10.93733221 22.24591045 13.15748291 33.22265625 13.11328125 C35.64047372 13.01466422 37.87334303 12.73409022 40.25 12.3125 C45.73288839 11.85559263 49.21436318 13.49630584 53.375 17 C57.77403857 22.41420131 56.41655489 30.65985075 55.78521729 37.237854 C55.20795209 42.24372207 54.48090932 47.22434395 53.71118164 52.20385742 C53.31093195 54.82276 52.94111325 57.44487262 52.57226562 60.06835938 C52.31694092 61.7606948 52.05984129 63.4527636 51.80078125 65.14453125 C51.64262688 66.30103935 51.64262688 66.30103935 51.48127747 67.48091125 C50.56927282 73.1034634 48.58114152 77.53727363 45 82 C40.66611877 85.0148739 37.220604 85.6300729 32 85 C27.908914 83.59604798 24.82685674 82.04735188 22.125 78.625 C20.91192837 75.79449952 19.95891352 72.92508914 19 70 C17.86111328 71.28197266 17.86111328 71.28197266 16.69921875 72.58984375 C15.69561498 73.70600122 14.69169204 74.82187176 13.6875 75.9375 C13.18798828 76.50146484 12.68847656 77.06542969 12.17382812 77.64648438 C9.23804345 80.89334557 7.4059296 82.72045389 2.94921875 83.23828125 C-3.59695619 83.45309528 -6.82695129 81.73538682 -11.8125 77.4375 C-14.10082915 74.66741734 -14.21078438 71.69762403 -14.3125 68.25 C-14.34988281 67.43015625 -14.38726562 66.6103125 -14.42578125 65.765625 C-13.45445573 59.45646476 -8.88234377 54.31395907 -5 49.4375 C-1.8058963 45.39647486 1.19278975 41.32128429 4 37 C3.25556641 36.38125 3.25556641 36.38125 2.49609375 35.75 C-1.81572093 32.08454844 -5.6277204 28.28655771 -9.28125 23.96875 C-10.96232821 22.04315132 -12.7237164 20.27426488 -14.5625 18.5 C-18.09869422 15.01180842 -21.45650392 11.28574431 -24 7 C-24 6.01 -24 5.02 -24 4 C-22.69675781 3.81824219 -22.69675781 3.81824219 -21.3671875 3.6328125 C-20.21476562 3.46523438 -19.06234375 3.29765625 -17.875 3.125 C-16.16957031 2.88136719 -16.16957031 2.88136719 -14.4296875 2.6328125 C-11.00957378 2.08909465 -11.00957378 2.08909465 -7.8828125 0.9296875 C-4.97348411 -0.0085512 -3.02222725 -0.41737914 0 0 Z " fill="#FEAB33" transform="translate(369,398)"/>
<path d="M0 0 C-0.14311296 1.85437862 -0.28963451 3.70849429 -0.4375 5.5625 C-0.55931641 7.11130859 -0.55931641 7.11130859 -0.68359375 8.69140625 C-0.89081571 10.85828277 -1.16725859 13.01990013 -1.51953125 15.16796875 C-4.05338534 35.37700013 -2.01776074 56.0166965 5.01171875 75.09375 C6 78 6 78 6 81 C-2.88495163 80.22739551 -10.56943506 76.24094509 -18.5703125 72.53515625 C-21.30200553 71.31242805 -24.04057557 70.14183686 -26.8046875 68.99609375 C-63.99045725 53.53345116 -63.99045725 53.53345116 -72 41 C-72.52454143 36.95353751 -72.33114895 34.6622979 -70.5 31 C-60.73843835 19.28612602 -47.16412471 12.88703718 -33 8 C-31.80503906 7.56816406 -30.61007813 7.13632813 -29.37890625 6.69140625 C-20.11229044 3.44182297 -9.91525632 0 0 0 Z " fill="#FEAB33" transform="translate(78,138)"/>
<path d="M0 0 C5.34290515 5.55937645 8.44049059 12.29609018 8.62109375 20.01953125 C8.0245259 29.2729614 4.94681066 36.54764986 -1.75390625 42.95703125 C-8.15731955 47.56748882 -12.36754413 49.93268513 -20.25390625 49.76953125 C-21.37708252 49.7530957 -21.37708252 49.7530957 -22.52294922 49.73632812 C-30.95855588 49.40631091 -35.97363478 46.44948505 -41.75390625 40.39453125 C-48.20259778 32.32992629 -48.88881957 24.40945106 -47.87890625 14.20703125 C-46.03282517 6.10844935 -41.78705081 0.6395929 -35.046875 -4.07421875 C-23.31863463 -11.22870089 -10.14341048 -8.35029459 0 0 Z " fill="#2C2E33" transform="translate(171.87890625,106.79296875)"/>
</svg>
